<svg version="1.1" id="Layer_1" xmlns="http://www.w3.org/2000/svg" xmlns:xlink="http://www.w3.org/1999/xlink" x="0px" y="0px"
	 width="100%" viewBox="0 0 100 100" enable-background="new 0 0 100 100" xml:space="preserve">
<path fill="#000000" opacity="1.000000" stroke="none" 
	d="
M55.000000,101.000000 
	C37.666668,101.000000 20.832872,100.938591 4.000517,101.066711 
	C1.498083,101.085762 0.927402,100.500175 0.935280,97.999802 
	C1.034011,66.666786 1.034007,35.333248 0.935287,4.000231 
	C0.927410,1.499949 1.499759,0.927397 4.000176,0.935277 
	C35.333191,1.034015 66.666733,1.034005 97.999748,0.935291 
	C100.499985,0.927414 101.072601,1.499695 101.064720,4.000158 
	C100.965973,35.333176 100.965988,66.666718 101.064697,97.999733 
	C101.072578,100.499931 100.503014,101.091957 97.999397,101.067345 
	C83.834084,100.928070 69.666687,101.000000 55.000000,101.000000 
z"/>
<path fill="#C850F2" opacity="1.000000" stroke="none" 
	d="
M60.379341,96.826248 
	C50.488281,96.800507 40.885426,98.196198 31.922749,93.493591 
	C14.369991,84.283875 5.141977,70.590790 4.722491,50.075592 
	C4.335006,31.125387 19.294416,11.629443 36.784565,6.709210 
	C62.071991,-0.404512 86.995354,11.428406 94.955910,36.319908 
	C102.578568,60.154869 91.958351,85.147835 67.584038,94.243286 
	C65.339584,95.080811 62.992172,95.678314 60.379341,96.826248 
z"/>
<path fill="#000000" opacity="1.000000" stroke="none" 
	d="
M48.999935,21.023262 
	C48.999844,28.843821 48.888195,36.169910 49.051624,43.489861 
	C49.122299,46.655411 48.258572,47.701122 45.077240,46.623177 
	C35.302391,43.311111 25.465218,40.181976 15.708384,36.818935 
	C14.427217,36.377335 12.490114,36.221401 13.816559,33.212936 
	C19.618273,20.054249 30.506985,13.709739 43.510513,10.106639 
	C46.642853,9.238710 49.910263,9.524174 49.053936,14.543488 
	C48.722813,16.484337 48.999924,18.528957 48.999935,21.023262 
z"/>
</svg>