<svg version="1.1" id="Layer_1" xmlns="http://www.w3.org/2000/svg" xmlns:xlink="http://www.w3.org/1999/xlink" x="0px" y="0px"
	 width="100%" viewBox="0 0 100 100" enable-background="new 0 0 100 100" xml:space="preserve">
<path fill="#000000" opacity="1.000000" stroke="none" 
	d="
M56.000000,101.000000 
	C37.333336,101.000000 19.166674,101.000000 1.000007,101.000000 
	C1.000005,67.666679 1.000005,34.333351 1.000002,1.000021 
	C34.333317,1.000014 67.666634,1.000014 100.999969,1.000007 
	C100.999977,34.333313 100.999977,67.666626 100.999985,100.999969 
	C86.166664,101.000000 71.333336,101.000000 56.000000,101.000000 
M47.625011,96.999588 
	C51.787403,96.970787 56.115074,97.681419 60.085541,96.793961 
	C87.193924,90.734772 104.847580,63.758953 94.124298,34.319820 
	C85.569389,10.833617 60.280334,-0.737377 36.662430,6.934488 
	C10.738103,15.355554 -0.287594,39.699024 6.567523,64.886086 
	C11.589381,83.337387 30.048695,96.941185 47.625011,96.999588 
z"/>
<path fill="#C850F2" opacity="1.000000" stroke="none" 
	d="
M47.148026,96.999619 
	C30.048695,96.941185 11.589381,83.337387 6.567523,64.886086 
	C-0.287594,39.699024 10.738103,15.355554 36.662430,6.934488 
	C60.280334,-0.737377 85.569389,10.833617 94.124298,34.319820 
	C104.847580,63.758953 87.193924,90.734772 60.085541,96.793961 
	C56.115074,97.681419 51.787403,96.970787 47.148026,96.999619 
M30.967905,18.703400 
	C36.705723,26.739273 42.443539,34.775146 48.707169,43.547421 
	C48.707169,31.589230 48.707169,20.856581 48.707169,8.610551 
	C42.131969,10.985407 36.280468,13.057644 30.499655,15.311210 
	C30.217022,15.421390 30.553276,17.119129 30.967905,18.703400 
z"/>
<path fill="#000000" opacity="1.000000" stroke="none" 
	d="
M30.784622,18.390505 
	C30.553276,17.119129 30.217022,15.421390 30.499655,15.311210 
	C36.280468,13.057644 42.131969,10.985407 48.707169,8.610551 
	C48.707169,20.856581 48.707169,31.589230 48.707169,43.547421 
	C42.443539,34.775146 36.705723,26.739273 30.784622,18.390505 
z"/>
</svg>