<svg xmlns="http://www.w3.org/2000/svg" width="512" height="512" viewBox="0 0 512 512" version="1.1"><path d="M 225.500 33.683 C 152.389 43.473, 87.012 90.810, 54.551 157.460 C 43.690 179.760, 36.564 203.581, 33.468 227.941 C 31.331 244.750, 31.851 277.350, 34.490 292 C 42.206 334.831, 59.345 371.311, 86.622 402.962 C 123.282 445.500, 174.924 472.483, 232.357 479.110 C 247.022 480.802, 279.647 479.741, 294.219 477.098 C 382.588 461.068, 451.760 396.748, 473.512 310.380 C 475.343 303.110, 477.552 291.684, 478.421 284.989 C 480.228 271.058, 480.488 244.752, 478.949 231.500 C 471.415 166.618, 437.316 109.268, 384 71.806 C 354.769 51.267, 316.948 37.095, 280.500 33.022 C 267.733 31.595, 238.462 31.947, 225.500 33.683 M 241.117 73.081 C 160.921 79.230, 93.268 138.771, 76.560 217.909 C 53.581 326.741, 131.542 430.540, 242.558 438.921 C 326.151 445.233, 404.200 392.857, 430.403 312.865 C 458.731 226.388, 419.115 132.286, 337.225 91.534 C 324.305 85.104, 306.104 78.818, 292.500 76.087 C 283.139 74.208, 259.934 71.824, 254.105 72.142 C 252.672 72.221, 246.828 72.643, 241.117 73.081 M 230.928 89.469 C 212.234 92.516, 197.496 97.253, 180.962 105.529 C 134.192 128.940, 102.165 170.685, 90.840 223 C 88.855 232.172, 88.567 236.345, 88.567 256 C 88.567 275.655, 88.855 279.828, 90.840 289 C 105.488 356.667, 155.387 406.567, 223 421.166 C 232.160 423.144, 236.371 423.433, 256 423.433 C 275.655 423.433, 279.828 423.145, 289 421.160 C 356.738 406.496, 406.496 356.738, 421.160 289 C 423.145 279.828, 423.433 275.655, 423.433 256 C 423.433 236.371, 423.145 232.178, 421.176 223.143 C 410.009 171.904, 378.156 129.809, 333 106.613 C 318.958 99.400, 304.324 94.135, 289.500 90.964 C 276.462 88.174, 243.960 87.345, 230.928 89.469 M 136.223 201 C 113.437 205.822, 103.573 232.027, 117.435 250.911 L 121.083 255.880 117.440 260.950 C 110.857 270.114, 109.236 281.210, 113.008 291.292 C 115.865 298.928, 120.903 304.335, 128.771 308.208 C 135.109 311.328, 136.032 311.500, 146.479 311.495 C 161.153 311.489, 166.492 309.668, 174.080 302.080 C 185.820 290.340, 186.566 273.066, 175.907 259.750 L 172.906 256 175.907 252.250 C 183.157 243.193, 185.173 231.959, 181.514 221.010 C 179.094 213.767, 170.623 205.103, 163.500 202.584 C 157.721 200.541, 142.553 199.660, 136.223 201 M 216.308 201.010 C 212.071 202.717, 211.275 205.747, 209.090 228.500 C 206.543 255.035, 206.530 256.198, 208.758 258.949 C 211.619 262.483, 216.190 261.965, 221.072 257.554 C 228.498 250.845, 236.533 249.237, 244.500 252.866 C 258.769 259.364, 262.341 278.386, 251.356 289.371 C 246.436 294.292, 241.383 296.268, 234.919 295.801 C 225.248 295.101, 218.410 289.155, 215.850 279.218 C 214.078 272.341, 207.927 269.810, 202.894 273.885 C 195.748 279.671, 206.799 300.841, 220.453 307.521 C 238.925 316.558, 260.679 308.409, 269.890 289 C 272.163 284.211, 272.500 282.208, 272.500 273.500 C 272.500 264.459, 272.218 262.926, 269.560 257.513 C 265.802 249.857, 258.537 242.603, 251.236 239.214 C 244.727 236.193, 232.293 235.005, 226.892 236.888 L 223.743 237.985 224.469 227.743 C 224.867 222.109, 225.402 217.162, 225.656 216.750 C 225.910 216.338, 234.881 216, 245.591 216 C 267.254 216, 271.420 215.161, 272.573 210.566 C 273.575 206.574, 272.247 203.179, 269.035 201.518 C 266.640 200.280, 261.717 200.012, 242.300 200.063 C 229.210 200.098, 217.514 200.524, 216.308 201.010 M 366.725 201.245 C 364.290 202.068, 360.897 208.283, 338.975 252.069 C 325.239 279.506, 314.014 302.978, 314.032 304.227 C 314.074 307.207, 316.026 309.679, 319.331 310.936 C 325.414 313.249, 325.219 313.553, 351.982 260.035 C 365.742 232.520, 377 209.076, 377 207.938 C 377 202.761, 371.957 199.475, 366.725 201.245 M 301.934 217.750 C 288.979 224.318, 286.197 240.749, 296.202 251.603 C 304.781 260.910, 318.115 261.137, 327.137 252.129 C 334.340 244.939, 335.856 236.528, 331.598 227.383 C 326.308 216.022, 313.529 211.872, 301.934 217.750 M 133.990 218.250 C 128.312 222.115, 126.500 225.440, 126.500 232 C 126.500 238.588, 128.306 241.877, 134.092 245.827 C 137.221 247.963, 138.360 248.126, 148 247.827 C 157.253 247.539, 158.881 247.214, 161.712 245.090 C 168.300 240.147, 169.924 230.959, 165.534 223.468 C 162.037 217.500, 158.263 216, 146.747 216 C 138.592 216, 136.842 216.309, 133.990 218.250 M 307.073 232.635 C 304.514 235.887, 304.454 238.105, 306.844 241.056 C 310.558 245.642, 319 242.716, 319 236.844 C 319 234.115, 314.561 230, 311.618 230 C 310.138 230, 308.313 231.057, 307.073 232.635 M 372.558 254.248 C 370.082 254.902, 366.881 257.024, 363.954 259.951 C 353.060 270.844, 355.820 287.851, 369.572 294.579 C 388.493 303.836, 407.856 284.534, 398.609 265.634 C 395.801 259.894, 390.850 255.678, 384.920 253.977 C 380.814 252.800, 377.790 252.866, 372.558 254.248 M 133.990 266.250 C 128.312 270.115, 126.500 273.440, 126.500 280 C 126.500 286.588, 128.306 289.877, 134.092 293.827 C 137.221 295.963, 138.360 296.126, 148 295.827 C 157.253 295.539, 158.881 295.214, 161.712 293.090 C 168.300 288.147, 169.924 278.959, 165.534 271.468 C 162.037 265.500, 158.263 264, 146.747 264 C 138.592 264, 136.842 264.309, 133.990 266.250 M 376.894 269.198 C 369.806 271.572, 372.140 282, 379.760 282 C 382.179 282, 386 277.963, 386 275.408 C 386 272.839, 383.528 269.370, 381.281 268.787 C 380.301 268.533, 378.328 268.718, 376.894 269.198" stroke="none" fill="#0071bc" fill-rule="evenodd"/><path d="" stroke="none" fill="#0874bc" fill-rule="evenodd"/></svg>