<svg version="1.1" id="Layer_1" xmlns="http://www.w3.org/2000/svg" xmlns:xlink="http://www.w3.org/1999/xlink" x="0px" y="0px"
	 width="100%" viewBox="0 0 100 100" enable-background="new 0 0 100 100" xml:space="preserve">
<path fill="#000000" opacity="1.000000" stroke="none" 
	d="
M55.000000,101.000000 
	C36.666668,101.000000 18.833340,101.000000 1.000007,101.000000 
	C1.000005,67.666679 1.000005,34.333351 1.000002,1.000021 
	C34.333317,1.000014 67.666634,1.000014 100.999969,1.000007 
	C100.999977,34.333313 100.999977,67.666626 100.999985,100.999969 
	C85.833336,101.000000 70.666664,101.000000 55.000000,101.000000 
M68.425781,94.002129 
	C75.140511,91.752312 80.228874,87.280167 85.202644,82.399231 
	C98.624321,69.228058 100.457748,47.092304 93.225243,31.854961 
	C84.675644,13.842807 70.270676,4.825851 49.843632,4.834525 
	C34.088383,4.841215 21.992165,11.708872 13.333018,23.632690 
	C-1.864763,44.560341 2.414208,74.870583 25.558575,89.940079 
	C38.708961,98.502411 52.917004,99.682518 68.425781,94.002129 
z"/>
<path fill="#C850F2" opacity="1.000000" stroke="none" 
	d="
M68.025894,94.035393 
	C52.917004,99.682518 38.708961,98.502411 25.558575,89.940079 
	C2.414208,74.870583 -1.864763,44.560341 13.333018,23.632690 
	C21.992165,11.708872 34.088383,4.841215 49.843632,4.834525 
	C70.270676,4.825851 84.675644,13.842807 93.225243,31.854961 
	C100.457748,47.092304 98.624321,69.228058 85.202644,82.399231 
	C80.228874,87.280167 75.140511,91.752312 68.025894,94.035393 
M47.445831,10.015213 
	C45.645977,10.154856 43.772453,10.018394 42.057434,10.475990 
	C20.022327,16.355328 7.607811,34.232819 9.988847,57.884392 
	C10.239985,60.379032 10.731372,61.263092 13.703603,60.217819 
	C21.451841,57.492931 29.433456,55.440811 37.256153,52.916340 
	C49.023785,49.118793 49.077663,49.044250 48.973171,36.370564 
	C48.901028,27.619623 48.576965,18.870762 47.445831,10.015213 
z"/>
<path fill="#000000" opacity="1.000000" stroke="none" 
	d="
M47.905655,10.068092 
	C48.576965,18.870762 48.901028,27.619623 48.973171,36.370564 
	C49.077663,49.044250 49.023785,49.118793 37.256153,52.916340 
	C29.433456,55.440811 21.451841,57.492931 13.703603,60.217819 
	C10.731372,61.263092 10.239985,60.379032 9.988847,57.884392 
	C7.607811,34.232819 20.022327,16.355328 42.057434,10.475990 
	C43.772453,10.018394 45.645977,10.154856 47.905655,10.068092 
z"/>
</svg>