<svg xmlns="http://www.w3.org/2000/svg" width="100" height="100" viewBox="0 0 100 100" version="1.1"><path d="M 35.762 5.942 C 2.073 16.711, -7.232 60.726, 19.164 84.457 C 24.776 89.503, 34.223 94.512, 36.488 93.643 C 37.652 93.196, 38 91.330, 38 85.531 L 38 78 35.125 78 C 27.720 78, 26.162 77.053, 22.636 70.412 C 19.062 63.681, 19.986 63.187, 25.437 68.914 C 28.044 71.653, 29.011 72, 34.041 72 C 38.700 72, 40.188 71.555, 42.405 69.500 C 43.889 68.125, 45.530 67, 46.052 67 C 46.573 67, 47 66.613, 47 66.139 C 47 65.666, 44.704 65.007, 41.898 64.674 C 36.378 64.021, 28.625 60.071, 27.596 57.389 C 27.044 55.951, 25.724 55.795, 17.862 56.244 C 12.568 56.545, 9.338 56.400, 10.133 55.896 C 10.885 55.420, 13.826 55.024, 16.668 55.015 C 28.298 54.981, 27.920 52.068, 16.250 51.796 L 7.500 51.593 15.750 51.256 L 24 50.919 24 47.980 C 24 46.363, 24.732 43.212, 25.626 40.977 C 26.667 38.374, 27.054 35.442, 26.703 32.820 C 26.401 30.568, 26.548 27.688, 27.031 26.420 C 27.780 24.449, 28.315 24.233, 30.704 24.938 C 32.242 25.392, 34.660 26.304, 36.079 26.964 C 37.993 27.855, 40.106 27.897, 44.284 27.125 C 48.190 26.403, 51.729 26.405, 55.855 27.131 C 60.762 27.996, 62.208 27.913, 64.149 26.654 C 65.442 25.816, 67.850 24.989, 69.500 24.815 L 72.500 24.500 72.613 31 C 72.675 34.575, 73.237 38.767, 73.863 40.315 C 74.488 41.863, 75 44.676, 75 46.565 L 75 50 81.750 50.070 C 85.463 50.109, 89.400 50.514, 90.500 50.970 C 91.761 51.492, 89.543 51.744, 84.500 51.650 C 76.151 51.493, 71.891 52.663, 75.566 54.102 C 76.630 54.519, 79.975 54.898, 83 54.945 C 86.025 54.992, 89.072 55.394, 89.771 55.837 C 90.470 56.281, 87.218 56.443, 82.544 56.198 C 74.147 55.757, 74.004 55.789, 70.412 58.943 C 66.100 62.729, 63.219 63.969, 56.500 64.928 L 51.500 65.642 54.275 66.993 C 59.197 69.389, 61.351 74.318, 61.827 84.274 C 62.131 90.619, 62.648 93.312, 63.638 93.691 C 65.793 94.518, 75.358 89.383, 80.836 84.457 C 100.056 67.177, 101.376 37.466, 83.772 18.368 C 72.159 5.769, 52.344 0.641, 35.762 5.942" stroke="none" fill="#fffcfc" fill-rule="evenodd"/><path d="" stroke="none" fill="#fcfcfc" fill-rule="evenodd"/></svg>